<?xml version="1.0" encoding="UTF-8"?>
<svg id="Layer_2" data-name="Layer 2" xmlns="http://www.w3.org/2000/svg" viewBox="0 0 202.68 220.5">
  <defs>
    <style>
      .cls-1 {
        fill: #fabe67;
      }

      .cls-1, .cls-2, .cls-3, .cls-4, .cls-5, .cls-6, .cls-7, .cls-8, .cls-9, .cls-10, .cls-11, .cls-12, .cls-13, .cls-14, .cls-15, .cls-16 {
        stroke-width: 0px;
      }

      .cls-2 {
        fill: #767f8b;
      }

      .cls-3 {
        fill: #525961;
      }

      .cls-4 {
        fill: #4e4e4e;
      }

      .cls-5 {
        fill: #4d4d4d;
      }

      .cls-6 {
        fill: #363636;
      }

      .cls-7 {
        fill: #d39b52;
      }

      .cls-8 {
        fill: #af8f2b;
      }

      .cls-9 {
        fill: #b17238;
      }

      .cls-10 {
        fill: #936d39;
      }

      .cls-11 {
        fill: #fbce3e;
      }

      .cls-12 {
        fill: #fefefe;
      }

      .cls-13 {
        fill: #030303;
      }

      .cls-14 {
        fill: #040404;
      }

      .cls-15 {
        fill: #010101;
      }

      .cls-16 {
        fill: #020202;
      }
    </style>
  </defs>
  <g id="OBJECTS">
    <g id="_2" data-name="2">
      <g>
        <path class="cls-15" d="m192.07,42.34c-5.9-6.46-12.56-12.03-19.88-16.8-12.94-8.43-27.08-14.16-41.88-18.32-11.65-3.28-23.52-5.4-35.55-6.6-6.66-.66-13.33-.75-19.99.13-2.12.28-4.22.79-6.39.51-2.94-.38-5.88-.77-8.84-1.06-9.83-.97-18.49,1.69-25.74,8.54-3.71,3.51-6.56,7.7-9.27,11.99-1.95,3.09-4.24,5.98-5.5,9.47-2.39,6.62-3.87,13.51-5.88,20.25-1.95,6.53-3.49,13.2-6.32,19.44-2.33,5.15-4.17,10.44-5.24,16-1.07,5.58-1.79,11.18-.36,16.78,1.87,7.33,4.49,14.43,6.94,21.58.27.78.53,1.63,1.53,1.92.44.13.59.64.7,1.1.2.79.38,1.6.65,2.37,1.32,3.85,2.66,7.69,4.03,11.64-.43.03-.87.11-1.31.1-3.25-.07-6.51-.17-9.76-.22-.79-.01-1.67-.15-2.13.83-1.02,2.21-1.95,4.44-1.91,6.95.04,2.69.39,3.05,3.04,3.19,5.39.28,10.77.63,16.16.86.98.04,1.43.43,1.84,1.22.51,1,.96,2.21,2.55,1.73.29-.09.46.3.63.52,1.16,1.49,2.31,2.99,3.32,4.6,1.92,3.07,3.76,6.19,6.08,8.98.72.87.94,1.91.77,3.02-.58,3.82-1.12,7.66-1.77,11.47-1.51,8.9-1.97,17.84-1.12,26.83.21,2.23.68,4.47,2.75,5.68,3.3,1.93,6.78,2.44,10.3.38,1.21-.71,2.12-1.76,3.21-2.76.37.8.75,1.48,1.02,2.21.63,1.71,1.84,2.78,3.62,2.95,3,.28,6.02.38,9.01-.13,1.7-.29,2.82-1.4,3.48-3.01.17-.4.12-.92.63-1.29.61,1.07,1.21,2.12,1.81,3.17.8,1.37,1.95,2.04,3.58,1.92,1.38-.1,2.65-.58,3.94-.97,2.33-.71,3.79-2.27,4.37-4.61.27-1.11.49-2.27.52-3.41.26-9.57.4-19.14-.12-28.7-.14-2.57.26-5.01,1.48-7.28,1.44-2.67,3.12-5.21,4.38-7.99.26-.58.67-.75,1.28-.53,1.5.55,3.02,1.07,4.52,1.63,5.81,2.17,11.69,4.16,17.62,6.01,1.83.57,2.21.4,3.25-1.23,1.28-2.01,2.17-4.15,2.44-6.53.24-2.14.02-2.5-1.98-3.36-7.45-3.18-15.02-6.06-22.39-9.44-.78-.36-1.17-.72-.89-1.66.23-.74.24-1.54.32-2.32.54-5.12,1.09-10.25,1.6-15.38.75-7.51,1.34-15.03,1.57-22.57.23-7.69-.34-15.32-1.18-22.96-.63-5.72-2.47-10.88-5.88-15.5-1.03-1.39-2.03-2.81-3.08-4.18-1.47-1.93-2.19-4.13-2.4-6.52-.23-2.66,1.92-4.93,4.58-4.86.62.02,1.24.05,1.85.12,9.54,1.15,19.13,1.54,28.7,2.2,5.63.39,11.25.89,16.85,1.56,7.48.89,14.92,2.08,22.33,3.39,9.64,1.71,19.31,3.29,28.79,5.73,5.92,1.52,12.05,2.65,17.01,6.74,1,.83,1.76.37,1.87-.98.15-1.81.2-3.62.31-5.43.72-11.24-2.99-20.88-10.52-29.13ZM93.46,2.08c15.1,1.68,29.97,4.37,44.41,9.26,12.38,4.2,24.3,9.29,35.12,16.72,8.31,5.71,15.81,12.3,21.82,20.48.33.46.74.88.84,1.57-.64.03-.98-.42-1.39-.7-3.12-2.16-6.49-3.71-10.21-4.49-3.55-.75-6.73-.3-9.14,2.75-.8,1.34-1.81,2.58-2.01,4.19-.19,1.55.33,2.92,1.08,4.23.24.42.62.78.62,1.34-.57.28-1.06-.06-1.52-.24-10.27-3.95-20.95-6.38-31.69-8.56-11.48-2.33-23.09-3.74-34.76-4.78-8.95-.79-17.91-1.49-26.89-1.95-1.28-.06-2.06-.33-2.17-1.81-.13-1.65-.44-3.28-.7-4.92-.04-.13-.07-.27-.07-.45-.98-8.54.64-16.56,4.78-24.08,1.36-2.48,3.16-4.63,5.23-6.54,1.88-1.74,4.16-2.29,6.65-2.02Zm-24.29,1.66c.57-.52,1.19-.86,1.96-.95,4.5-.57,9.01-.94,13.55-.96.64,0,1.3-.06,1.96.34-1.79,2.03-3.72,3.88-5.2,6.13-5.12,7.8-6.87,16.38-6,25.58.06.61.06,1.23.09,1.85.41,1.79.6,3.61.82,5.43.05.39-.07.53-.44.51-1.31-.08-2.61-.17-3.92-.26-.32-.02-.53-.22-.67-.48-.78-1.43-1.73-2.79-1.98-4.45-.68-2.85-.86-5.78-1.21-8.67-.57-4.78-1.02-9.58-1.86-14.33-.65-3.67-.04-7.07,2.9-9.72ZM19.06,151.66c-5.51-.39-11.02-.73-16.53-1.08-.51-.03-.82-.18-.92-.75-.46-2.6.45-4.89,1.64-7.07.38-.69,1.29-.19,1.96-.24,3.38.08,6.75.15,10.13.23q3.2-.15,3.82,3.03c.3,1.58.58,3.16.87,4.74.15.78.05,1.22-.96,1.15Zm7.21-8.03c-.04,4.2-.14,8.04-.7,11.87-1.62-3.83-1.62-8.01-2.65-11.97-.49,1.33-.12,2.61-.04,3.89.12,1.81.37,3.61.5,5.41.05.61-.04,1.24-.54,1.75-.09-.06-.24-.11-.27-.19-1.4-4.41-2.59-8.86-2.28-13.56.13-1.91.75-3.54,2.47-4.58,1.25-.76,2.51-.95,3.86-.21.92.5,1.7,1.14,2.45,1.86,1.51,1.47,2.03,3.08,1.16,5.14-1.06,2.52-1.71,5.15-1.82,7.91-.02.56.07,1.62-.73,1.59-.68-.03-.44-1.02-.47-1.59-.11-1.69-.13-3.38-.2-5.07-.03-.69-.19-1.34-.73-2.25Zm49.86,18.01c.58-1.45,1.11-2.93,1.67-4.38.31-.79.31-1.56,0-2.69-1.36,2.84-2.42,5.41-3.45,8-.33.84-.56,1.74-1.19,2.43-.36.4-.74.78-1.54,1.03.32-4.14,1.74-8.1,1.15-12.22-1.22,2.95-2.48,5.83-4.27,8.5-.28-2.07-.25-4.14.11-6.18.64-3.65,1.66-7.15,4.42-9.86,2.19-2.14,4.24-2.61,6.32-1.46,2.2,1.22,3.1,3.42,2.51,6.27-.76,3.7-2.3,7.11-3.95,10.48-.42.85-.81,1.71-1.23,2.56-.12.25-.3.59-.61.53-.37-.06-.27-.45-.28-.72-.05-.79.04-1.55.34-2.3Zm-7.56-10.5c-.83,2.5-1.64,5.02-1.66,7.69,0,.8-.35.71-.92.6-5.05-.99-10.1-1.94-15.14-2.91-6.7-1.29-13.4-2.61-20.11-3.86-1.1-.21-1.76-.5-1.26-1.75.29-.73.06-1.56.44-2.27.28-1.66.56-3.32.84-4.99.15-.88.68-1.04,1.52-.99,6.92.4,13.72,1.64,20.51,2.91,4.69.87,9.38,1.76,14.06,2.65q2.51.55,1.72,2.93Zm15.62,15.79c-1.28,2.3-2.5,4.63-3.86,6.9-1.25,2.1-2.22,4.33-2.1,6.87.01.25-.01.5-.21.69.11,5.39.64,10.77.45,16.16-.16,4.28-.14,8.56-.25,12.84-.04,1.43-.32,2.85-.56,4.26-.14.82-.54,1.55-1.19,2.12-1.85,1.62-4.1,1.99-6.43,1.96-.8,0-1.18-.8-1.56-1.44-.87-1.49-1.73-2.98-2.61-4.47-.32-.55-.73-1.01-1.46-.95-.85.86-.52,2.03-.73,3.04-.5,2.41-1.48,3.35-3.9,3.37-2.18,0-4.36.02-6.54,0-1.61-.01-2.46-.6-2.91-2.12-.28-.94-.75-1.83-.8-2.83-.24-.74-.58-1.46-.7-2.21-.18-1.06-.66-1.23-1.52-.75-.3,2.54-1.56,4.46-3.73,5.79-2.3,1.41-6.57,1.04-8.65-.68-1.44-1.19-1.57-2.83-1.74-4.46-.45-4.15-.3-8.31-.26-12.47.04-4.11.53-8.18,1.17-12.24.72-4.53,1.37-9.08,2.03-13.62.21-1.44-.28-2.7-1.22-3.76-2.36-2.67-4.15-5.73-6.12-8.66-.14-.2-.24-.44-.41-.61-1.43-1.39-1.45-3.1-1.18-4.91.06-.4.3-.31.54-.43,1.85-.88,3.64-.2,5.43.13,6,1.11,12,2.27,18,3.41,4.79.91,9.58,1.84,14.37,2.75.93.18,1.46.57,1.34,1.66-.1.93-.2,2.14.87,2.45,1.02.3,1.49-.8,2-1.54.18-.26.29-.6.8-.66,0,1.36,0,2.7,0,4.04,0,.56.05,1.11.63,1.37.57.26,1.05-.06,1.46-.41.5-.43.93-.92,1.33-1.46.4-.54.85-.84,1.16.15.12.4.25,1,.77,1.01.53.01.82-.49,1.09-.91.46-.72.62-1.83,1.41-2.09.77-.25,1.6.49,2.42.73.98.3,1.95.66,2.93.97.59.18.81.36.44,1.03Zm28.13-1.91c.4.17.73.33.72.86-.02,1.23,0,2.47-.6,3.6-.24,1.34-1.07,2.38-1.83,3.45-.58.83-1.25.34-1.88.14-7.3-2.27-14.5-4.84-21.71-7.38-2.32-.82-4.64-1.66-6.98-2.45-.87-.29-1.05-.7-.62-1.53.49-.94.85-1.94,1.27-2.92.71-1.75,1.45-3.49,2.12-5.26.26-.69.56-.73,1.19-.47,9.43,4,18.86,7.98,28.3,11.96Zm-31.42-93.01c.06-.2.06-.41.09-.61.03-.2.06-.4.11-.8,1.16,1.01,1.87,2.2,2.68,3.28,3.84,5.11,5.73,10.9,6.42,17.24.74,6.82,1.11,13.64.89,20.48-.15,4.56-.44,9.12-.88,13.68-.34,3.56-.49,7.15-.82,10.71-.5,5.32-.75,10.67-1.48,15.97-.11.8-.45,1.09-1.24.72-.41-.19-.86-.28-1.29-.41-2.07-.63-2.16-.63-2.1-2.74.06-2.23-.98-3.87-2.45-5.33-.57-.56-.77-1.07-.64-1.93.8-5.2,1.64-10.4,2-15.65.46-6.62.66-13.25-.47-19.84-.03-.18.09-.48-.21-.46-.12,0-.21.31-.32.48-.36,1-.27,2.06-.16,3.06.41,3.87.31,7.75.14,11.6-.21,4.83-.59,9.66-1.38,14.44-.32,1.94-.54,3.89-.79,5.84-.11.84-.39,1.36-1.41,1.23-.85-.11-1.73-.06-2.56.23-1.67.79-3.04,1.95-4.11,3.46-.48.67-1.07.9-1.92.71-6.88-1.55-13.8-2.93-20.76-4.07-5.1-.83-10.24-1.5-15.4-1.79-.75-.04-.94-.41-1.18-.99-.99-2.46-2.34-4.64-4.89-5.77h0c-.47-.14-.96-.45-1.41-.41-1.96.19-2.4-1.03-2.87-2.59-1.4-4.65-2.49-9.36-3.11-14.17-.56-4.35-1.32-8.67-1.59-13.07-.3-5.02-.5-10.03-.44-15.06,0-.04-.01-.08-.03-.12-.06-.13-.17-.2-.22-.03-.48,1.46-.71,2.97-.76,4.48-.25,7.39.29,14.73,1.41,22.04.94,6.15,2.03,12.25,4.11,18.13.23.64.16,1.11-.35,1.54-1.52,1.25-2.25,2.91-2.49,4.82-.1.82-.47,1.34-1.37,1.38-.84.04-1.16-.5-1.4-1.15-.39-1.08-.77-2.17-1.16-3.25-1.57-3.76-2.75-7.64-3.68-11.6-.22-.94-.21-1.94-1.61-1.83-.44.03-.45-.45-.53-.73-2.19-7.15-4.79-14.18-6.44-21.48-.77-3.41-.48-6.93-.16-10.42.48-5.2,1.77-10.19,3.57-15.06,1.1-2.97,2.48-5.83,3.64-8.78,1.73-4.41,2.9-8.99,4.22-13.53,2.04-6.98,3.91-14,5.99-20.96.89-2.99,2.18-5.86,4.16-8.34,3.24-5.11,6.34-10.34,10.79-14.56,4.69-4.43,10.22-7.09,16.63-8,5.08-.72,10.09-.15,15.11.55.66.09,1.07.29.45.99-.79.9-1.5,1.86-2.07,2.92-.5.92-1.35,1.27-2.37,1.29-2.59.07-5.19.27-7.78.19-4.95-.16-8.9,1.88-12.44,5.13-4.25,3.9-7.26,8.72-10.29,13.54-1.34,2.13-2.71,4.23-3.14,6.78-.25,1.46-.45,2.93-.41,4.42.01.39.05.87.37,1,1,.4.65,1,.38,1.65-.38.92-.53,1.75-.1,2.81.47,1.15-.23,2.42-.48,3.61-.75,3.59-.83,7.18-.48,10.81.19,1.93-.04,3.87.29,5.8.11.64.23,1.3.9,1.5,1,.3,1.37,1.1,1.8,1.89,2.84,5.2,6.05,10.12,10.39,14.22,1.54,1.46,3.16,2.82,5.49,2.69.17,0,.35.04.49-.02,1.85-.77,3.2-.34,4.21,1.48.38.68,1.35.68,2.14.76,3.01.29,5.91-.19,8.76-1.11.66-.21,1.17-.17,1.65.39.7.81,1.66.71,2.52.44,6.96-2.19,11.77-6.57,13.85-13.7Zm.15-14.24c-1.89,1.18-2.56,2.94-2.35,5.07.24,2.42.48,4.84.87,7.24.26,1.64-.07,3.1-.8,4.52-2.13,4.1-5.27,7.12-9.56,8.9-.68.28-1.36.6-2.04.87-.74.3-1.41.36-1.97-.39-.71-.95-1.67-.72-2.59-.38-2.31.85-4.67,1.31-7.14,1.21-1.56-.06-2.91-.4-3.73-1.92-.54-1-1.55-1.12-2.49-.79-2.5.89-4.48.08-6.3-1.64-4.44-4.23-7.78-9.26-10.54-14.69-.47-.92-.85-1.9-2.05-2.12-.36-.07-.37-.39-.39-.69-.37-5.47-.88-10.94.22-16.38.18-.89.4-1.77.58-2.65.07-.32.2-.71.08-.97-.8-1.65-.08-3.22.18-4.82.06-.38.38-.87-.33-.91-1.03-.07-.75-.75-.68-1.34.42-3.49,1.91-6.53,3.93-9.34h0c2.45-4.32,5.41-8.25,8.85-11.82,3.7-3.84,8.21-5.61,13.53-5.49,2.3.05,4.61-.06,6.91-.19.65-.04.78.22.86.72,1,6.26,1.74,12.56,2.5,18.85.33,2.7.65,5.39.97,8.09.34,1.2.88,2.28,1.64,3.28.74.97.86,2.21,1.1,3.38.77,3.74,2.15,7.16,5,9.85,1.37,1.29,2.93,2.27,4.63,3.03.56.25,1.12.52,1.68.78-.06.4-.33.58-.59.74Zm8.36-1.04c-7.41.17-15.24-4.23-17.33-12.19-.39-1.49-.37-1.5,1.14-1.45.25,0,.49,0,.74,0,2.01-.36,3.27.53,4.44,2.15,1.58,2.18,3.96,3.57,5.98,5.32,1.89,1.64,3.88,3.19,5.37,5.25.31.42.63.89-.33.92Zm105.37,16.22c-6.77-2.83-13.91-4.31-21.05-5.77-9.84-2.02-19.73-3.8-29.66-5.36-7.09-1.11-14.2-1.98-21.35-2.61-9.57-.84-19.17-1.36-28.75-1.96-1.46-.09-2.48-.54-3.29-1.9-1.74-2.92-4.31-5.08-7.11-6.96-1.49-1-2.79-2.19-3.95-3.54-.31-.36-.93-.68-.65-1.21.26-.48.91-.23,1.37-.2,4.28.31,8.55.63,12.83.99,4.52.37,9.03.8,13.55,1.16,5.59.45,11.16,1.07,16.71,1.8,11.16,1.47,22.2,3.6,33.09,6.43,8.9,2.31,17.67,5.04,25.89,9.25,4.87,2.49,9.38,5.52,13.35,9.32.21.2.41.41.59.63.05.05.05.15.07.25-.61.19-1.13-.1-1.64-.32Zm6.12,2.74c-.37.16-.6-.23-.77-.48-5.41-7.74-13.38-11.99-21.6-15.91-.55-.26-.98-.61-1.32-1.07-.56-.76-1.08-1.55-1.56-2.36-1.71-2.89-1.33-5.39,1.16-7.78,1.71-2.14,4.1-1.98,6.36-1.63,5.18.79,9.59,3.24,13.47,6.73,1.77,1.59,2.59,3.66,3.21,5.85.11.39.19.79.28,1.19.68,2.12.81,4.34.93,6.53.14,2.67.04,5.36.03,8.04,0,.31.17.74-.19.9Z"/>
        <path class="cls-4" d="m67.05,85.71c-.86.27-1.83.37-2.52-.44-.48-.56-1-.6-1.65-.39-2.85.91-5.75,1.4-8.76,1.11-.79-.08-1.76-.08-2.14-.76-1.01-1.82-2.36-2.25-4.21-1.48-.14.06-.33.01-.49.02-2.33.13-3.95-1.23-5.49-2.69-4.34-4.09-7.55-9.02-10.39-14.22-.43-.79-.8-1.6-1.8-1.89-.67-.2-.79-.85-.9-1.5-.33-1.93-.1-3.87-.29-5.8-.35-3.63-.28-7.22.48-10.81.25-1.19.96-2.46.48-3.61-.43-1.06-.28-1.89.1-2.81.27-.65.63-1.25-.38-1.65-.32-.13-.36-.61-.37-1-.05-1.49.16-2.95.41-4.42.43-2.55,1.8-4.65,3.14-6.78,3.03-4.82,6.04-9.63,10.29-13.54,3.54-3.25,7.49-5.29,12.44-5.13,2.59.08,5.19-.13,7.78-.19,1.02-.03,1.87-.38,2.37-1.29.58-1.06,1.28-2.02,2.07-2.92.62-.71.21-.9-.45-.99-5.02-.7-10.02-1.27-15.11-.55-6.41.91-11.95,3.57-16.63,8-4.45,4.21-7.55,9.44-10.79,14.56-.05,1.19-.61,2.24-1.15,3.22-2.19,3.98-3.42,8.25-4.03,12.71-.54,3.97-.73,8.02-1.59,11.92-.92,4.19-1.93,8.4-3.46,12.44-1.12,2.96-1.78,6.06-2.61,9.1-.86,3.16-1.72,6.32-2.14,9.58-.03.24-.11.48-.12.73-.15,6.21-.7,12.41-.5,18.63.11,3.59.75,7.06,1.99,10.45,1.47,4,2.56,8.11,2.99,12.39.31,3.09.83,6.16,1.32,9.23.13.79.08,1.56.13,2.33.38,1.08.76,2.17,1.16,3.25.24.65.56,1.19,1.4,1.15.91-.04,1.27-.57,1.37-1.38.24-1.91.98-3.57,2.49-4.82.51-.42.58-.89.35-1.54-2.08-5.88-3.17-11.98-4.11-18.13-1.12-7.31-1.67-14.65-1.41-22.04.05-1.51.28-3.03.76-4.48.05-.17.17-.1.22.03.02.04.02.08.03.12,1.28.02,2.02.6,2.32,1.91,1,4.35,1.71,8.76,2.34,13.17.8,5.54.88,11.19,2.27,16.65.62,2.41,1.46,4.78,1.98,7.21.45,2.08,1.35,4.16.52,6.36,2.56,1.14,3.9,3.32,4.89,5.77.23.58.43.95,1.18.99,5.17.29,10.3.96,15.4,1.79,6.96,1.14,13.87,2.52,20.76,4.07.85.19,1.44-.04,1.92-.71,1.08-1.5,2.44-2.67,4.11-3.46-.43-1.37-.27-2.76-.12-4.15.52-4.74,1.76-9.32,2.9-13.93.83-3.37.94-6.81.94-10.26,0-2.18.14-4.34.53-6.49.19-1.06.7-1.76,1.92-1.58.11-.17.2-.47.32-.48.3-.02.18.28.21.46,1.13,6.59.92,13.22.47,19.84-.36,5.25-1.2,10.45-2,15.65-.13.87.07,1.37.64,1.93,1.47,1.46,2.51,3.1,2.45,5.33-.06,2.11.04,2.11,2.1,2.74.43.13.88.22,1.29.41.8.37,1.13.08,1.24-.72.72-5.3.98-10.65,1.48-15.97.33-3.56.48-7.14.82-10.71.44-4.55.73-9.11.88-13.68.22-6.84-.16-13.66-.89-20.48-.68-6.34-2.58-12.13-6.42-17.24-.81-1.08-1.52-2.27-2.68-3.28-.06.41-.09.61-.11.8-.03.2-.03.41-.09.61-2.08,7.13-6.9,11.51-13.85,13.7Zm-32.73,13.82c-.13.53-.43.99-1.05,1.07-.59.08-.89-.33-1.17-.74-.59-.88-.49-1.83-.37-2.77.1-.02.21-.04.31-.06.3.79.59,1.59.88,2.38.37.05.36-.29.53-.43.26-.22.33-.86.74-.67.47.23.23.81.12,1.22Zm15.21,23.09c.1,1.05-.2,2.03-.7,2.94-.5.93-1.18.97-1.77.1-.53-.77-.65-1.64-.48-2.65.68.37.8,1.41,1.44,1.16.48-.19.34-1.09.52-1.67.14-.47,0-1.32.64-1.25.66.07.31.88.35,1.36Zm16.46-13.23c-.11.64-.78.8-1.4.71-.7-.1-1.32-.97-1.4-1.98.74.08,1.16.71,1.77.99.61-1.2.41-2.58,1.13-3.71.47,1.36.13,2.68-.1,3.98Z"/>
        <path class="cls-11" d="m76.87,35.17c-.02-.15-.05-.3-.07-.45,0,.18.03.32.07.45Z"/>
        <path class="cls-11" d="m81.58,10.64c-4.13,7.52-5.75,15.54-4.78,24.08.23.61.63.83,1.31.77,1.52-.13,3.04-.25,4.56-.23,5.03.04,10.08-.13,15.08.3,6.19.54,12.41.6,18.59,1.19,6.87.66,13.73,1.37,20.58,2.21,4.72.58,9.41,1.46,14.09,2.34,5.74,1.07,11.39,2.49,17.01,4.06,2.33.65,4.66,1.32,6.9,2.29,2.41-3.04,5.59-3.49,9.14-2.75,3.72.78,7.1,2.34,10.21,4.49.41.28.75.74,1.39.7-.1-.69-.51-1.11-.84-1.57-6.01-8.17-13.5-14.77-21.82-20.48-10.82-7.43-22.74-12.52-35.12-16.72-14.44-4.89-29.32-7.59-44.41-9.26-2.48-.28-4.76.28-6.65,2.02-2.07,1.91-3.87,4.06-5.23,6.54Z"/>
        <path class="cls-12" d="m75.33,53.22c-2.85-2.69-4.24-6.11-5-9.85-.24-1.17-.36-2.4-1.1-3.38-.77-1-1.3-2.09-1.64-3.28-3.64-.09-7.2.58-10.77,1.09-4.16.6-8.03.19-11.61-2.41-3.87-2.81-7.68-5.66-11.25-8.84h0c-2.02,2.81-3.51,5.86-3.93,9.34-.07.59-.35,1.28.68,1.34.72.05.4.53.33.91-.26,1.59-.98,3.17-.18,4.82.12.25-.01.65-.08.97-.18.89-.4,1.77-.58,2.65-1.11,5.45-.6,10.91-.22,16.38.02.3.03.62.39.69,1.2.22,1.58,1.21,2.05,2.12,2.76,5.44,6.09,10.46,10.54,14.69,1.81,1.73,3.79,2.53,6.3,1.64.94-.33,1.95-.22,2.49.79.82,1.52,2.17,1.86,3.73,1.92,2.47.1,4.83-.37,7.14-1.21.92-.34,1.88-.56,2.59.38.57.76,1.24.69,1.97.39.68-.28,1.36-.59,2.04-.87,4.29-1.78,7.43-4.79,9.56-8.9.74-1.42,1.07-2.88.8-4.52-.39-2.4-.63-4.82-.87-7.24-.21-2.13.45-3.89,2.35-5.07.26-.17.53-.34.59-.74-.57-.26-1.12-.53-1.68-.78-1.71-.76-3.26-1.74-4.63-3.03Z"/>
        <path class="cls-4" d="m77.76,178.69c0-2.8-.09-5.6.25-8.39.12-1-.26-1.18-1.09-.66-.24.15-.56.34-.8.29-1.67-.35-3.21.23-4.8.53-1.66.31-2.86-.45-3.81-1.73-.17-.23-.37-.63-.54-.63-2.23.08-3.87-1.75-6.2-1.7-1.99.04-3.98-.84-6-1.23-5.91-1.14-11.83-2.24-17.75-3.34-.99-.18-1.24.11-.81,1.03.56,1.19,1.15,2.37,1.85,3.48,1.59,2.52,1.91,5.38,2.27,8.23.24,1.83.47,3.68.41,5.51-.06,1.83.03,3.73-.53,5.49-1.89,5.92-1.7,12.01-1.56,18.09.07,2.86.47,5.72.71,8.58.05.61.29.9.96.74.87-.21,1.75-.45,2.67-.39.31.02.59-.09.77-.33.88-1.19,2.08-1.79,3.53-1.89.87-.48,1.35-.31,1.52.75.13.76.46,1.48.7,2.21,2.6,1.18,5.25,2.04,8.17,1.51,1.29-.24,1.9-1.38,2.88-2.03,1.23-.82,2.44-1.06,3.83-.93.73-.06,1.13.4,1.46.95.88,1.49,1.74,2.98,2.61,4.47.38.64.76,1.43,1.56,1.44,2.33.03,4.58-.33,6.43-1.96.65-.57,1.05-1.29,1.19-2.12.24-1.41.52-2.84.56-4.26.11-4.28.09-8.56.25-12.84.2-5.39-.33-10.77-.45-16.16-.34-.87-.26-1.78-.26-2.69Zm-29.51,12.31c-.1.76-.18,1.66-1.19,1.76-1,.1-1.3-.67-1.53-1.45-.21-.71-.38-1.42.05-2.14.69.44.72,1.32,1.35,1.77.1-.09.21-.16.27-.25.21-.36,0-1.15.58-1.05.57.1.55.84.48,1.35Zm8.92-13.85c-.85-.15-1.08-.8-1.18-1.52-.06-.45,0-.9.43-1.38.35.61.63,1.1.97,1.69.92-.98.55-2.32,1.26-3.39.46,1.23.45,2.39.07,3.54-.24.73-.68,1.23-1.55,1.07Zm4.15,23.83c-.27,1.45-.76,2.86-1.16,4.28-.14.51-.45.93-.96,1.04-.64.14-.81-.47-1.02-.89-.44-.89-1.1-1.77-.4-2.94.45.63.85,1.19,1.35,1.89.9-2.47,1.42-4.92,2.16-7.31.65,1.34.27,2.65.03,3.92Zm8.02-11.48c-.23.48-.72.66-1.27.41-.84-.38-1.15-1-.87-1.93.17.05.36.06.47.15,1.02.84,1.25.08,1.37-.71.1-.65.17-1.3.47-1.85.14-.12.31-.13.33,0,.22,1.36.11,2.69-.5,3.94Z"/>
        <path class="cls-9" d="m195.76,72.39c-3.96-3.8-8.48-6.82-13.35-9.32-8.22-4.21-17-6.93-25.89-9.25-10.89-2.83-21.93-4.96-33.09-6.43-5.56-.73-11.13-1.35-16.71-1.8-4.52-.36-9.04-.79-13.55-1.16-4.27-.35-8.55-.68-12.83-.99-.46-.03-1.11-.29-1.37.2-.28.52.34.85.65,1.21,1.16,1.35,2.47,2.54,3.95,3.54,2.8,1.88,5.37,4.04,7.11,6.96.81,1.36,1.83,1.81,3.29,1.9,9.59.6,19.18,1.12,28.75,1.96,7.15.63,14.26,1.5,21.35,2.61,9.93,1.56,19.82,3.34,29.66,5.36,7.14,1.46,14.28,2.94,21.05,5.77.51.22,1.04.5,1.64.32-.03-.1-.03-.19-.07-.25-.19-.22-.39-.43-.59-.63Z"/>
        <path class="cls-8" d="m173.23,47.4c-6.27-2.09-12.66-3.74-19.12-5.1-6.75-1.42-13.53-2.62-20.39-3.32-6.44-.65-12.86-1.45-19.32-1.96-5.51-.43-11.05-.3-16.52-1.14-.33-.05-.66-.03-.99-.04-3.34-.07-6.68.11-10.02-.22-2.84-.28-5.68.24-8.53.21-.65,0-1.28-.04-1.48-.67.26,1.64.57,3.27.7,4.92.11,1.48.89,1.74,2.17,1.81,8.98.46,17.94,1.16,26.89,1.95,11.67,1.03,23.28,2.45,34.76,4.78,10.74,2.18,21.42,4.61,31.69,8.56.46.18.95.52,1.52.24,0-.56-.38-.92-.62-1.34-.75-1.32-1.28-2.69-1.08-4.23.2-1.62,1.21-2.86,2.01-4.19-.6.21-1.13-.07-1.67-.25Z"/>
        <path class="cls-8" d="m151,41.31c-4.68-.88-9.36-1.75-14.09-2.34-6.85-.85-13.71-1.55-20.58-2.21-6.18-.6-12.39-.66-18.59-1.19-5-.43-10.05-.26-15.08-.3-1.52-.01-3.04.1-4.56.23-.68.06-1.08-.16-1.31-.77.02.15.05.3.07.45.2.63.83.66,1.48.67,2.84.02,5.69-.5,8.53-.21,3.34.33,6.68.15,10.02.22.33,0,.66,0,.99.04,5.48.84,11.02.7,16.52,1.14,6.46.51,12.88,1.31,19.32,1.96,6.85.7,13.64,1.9,20.39,3.32,6.46,1.36,12.85,3.01,19.12,5.1.54.18,1.07.46,1.67.25-2.23-.97-4.57-1.64-6.9-2.29-5.62-1.56-11.27-2.98-17.01-4.06Z"/>
        <path class="cls-6" d="m83.75,165.89c-.98-.3-1.95-.67-2.93-.97-.82-.25-1.65-.99-2.42-.73-.79.26-.96,1.36-1.41,2.09-.26.42-.56.93-1.09.91-.52-.01-.65-.61-.77-1.01-.31-.99-.77-.69-1.16-.15-.39.54-.83,1.03-1.33,1.46-.41.35-.89.67-1.46.41-.58-.26-.63-.81-.63-1.37,0-1.34,0-2.68,0-4.04-.51.06-.62.4-.8.66-.51.74-.98,1.84-2,1.54-1.07-.32-.97-1.53-.87-2.45.12-1.08-.42-1.48-1.34-1.66-4.79-.91-9.58-1.83-14.37-2.75-6-1.14-11.99-2.3-18-3.41-1.79-.33-3.58-1.01-5.43-.13-.24.12-.48.02-.54.43-.27,1.8-.25,3.52,1.18,4.91.17.17.27.41.41.61,1.97,2.94,3.76,6,6.12,8.66.94,1.06,1.42,2.33,1.22,3.76-.66,4.54-1.31,9.09-2.03,13.62-.64,4.06-1.13,8.13-1.17,12.24-.04,4.16-.2,8.33.26,12.47.18,1.63.3,3.27,1.74,4.46,2.08,1.71,6.35,2.09,8.65.68,2.17-1.33,3.43-3.25,3.73-5.79-.24.38-.61.54-1.03.6-.46.07-.93.2-1.21.57-1.2,1.61-3.05,1.46-4.72,1.75-.91.16-1.23-.46-1.32-1.26-.16-1.39-.32-2.79-.44-4.18-.42-4.86-.44-9.73-.27-14.59.08-2.27.86-4.45,1.31-6.67,1.23-6.03.77-11.98-.85-17.87-.46-1.68-1.61-3.06-2.34-4.63-.33-.69-1.03-1.42-.56-2.17.51-.8,1.46-.38,2.18-.22,7.22,1.55,14.59,2.37,21.73,4.28.57.15,1.14.19,1.72.2.97.02,1.88.21,2.7.76.14.09.28.21.43.24,1.76.31,3.16,1.18,4.4,2.49.73.77,1.88.56,2.84.33,1.21-.29,2.38-.63,3.65-.41.53.09,1.05-.18,1.55-.36.8-.29,1.17.06,1.25.84.02.25.06.5.02.74-.44,2.7-.06,5.44-.34,8.15-.09.82.12,1.63,0,2.45.2-.19.22-.44.21-.69-.12-2.54.85-4.77,2.1-6.87,1.36-2.26,2.58-4.6,3.86-6.9.37-.67.15-.85-.44-1.03Z"/>
        <path class="cls-6" d="m78.01,178.93c.28-2.71-.1-5.45.34-8.15.04-.24,0-.49-.02-.74-.08-.79-.45-1.13-1.25-.84-.5.18-1.02.46-1.55.36-1.27-.23-2.44.12-3.65.41-.96.23-2.11.44-2.84-.33-1.24-1.31-2.64-2.18-4.4-2.49-.16-.03-.29-.14-.43-.24-.82-.55-1.74-.74-2.7-.76-.58-.01-1.15-.05-1.72-.2-7.15-1.91-14.51-2.73-21.73-4.28-.73-.16-1.68-.58-2.18.22-.47.74.23,1.47.56,2.17.74,1.57,1.88,2.94,2.34,4.63,1.62,5.89,2.08,11.84.85,17.87-.45,2.22-1.23,4.4-1.31,6.67-.16,4.87-.15,9.74.27,14.59.12,1.4.27,2.79.44,4.18.09.8.41,1.41,1.32,1.26,1.67-.29,3.51-.14,4.72-1.75.28-.37.75-.5,1.21-.57.43-.06.79-.22,1.03-.6-1.46.11-2.65.7-3.53,1.89-.18.24-.46.35-.77.33-.92-.06-1.8.18-2.67.39-.67.16-.91-.13-.96-.74-.24-2.86-.65-5.71-.71-8.58-.14-6.07-.33-12.17,1.56-18.09.56-1.76.47-3.66.53-5.49.06-1.83-.17-3.69-.41-5.51-.37-2.84-.68-5.7-2.27-8.23-.7-1.11-1.29-2.29-1.85-3.48-.43-.92-.18-1.21.81-1.03,5.92,1.1,11.84,2.21,17.75,3.34,2.01.39,4.01,1.27,6,1.23,2.33-.05,3.97,1.78,6.2,1.7.17,0,.37.4.54.63.95,1.28,2.15,2.04,3.81,1.73,1.59-.3,3.13-.87,4.8-.53.24.05.56-.14.8-.29.83-.52,1.21-.34,1.09.66-.34,2.79-.24,5.59-.25,8.39,0,.9-.08,1.82.26,2.69.11-.82-.09-1.63,0-2.45Z"/>
        <path class="cls-1" d="m47.05,36.11c1.86,1.14,3.85,1.53,6,1.56,2.87.03,5.65-.55,8.46-.9,1.55-.19,3.1-.43,4.67-.4.49,0,1-.05,1.41.33-.33-2.7-.64-5.39-.97-8.09-.76-6.29-1.5-12.59-2.5-18.85-.08-.5-.21-.76-.86-.72-2.3.13-4.61.24-6.91.19-5.32-.12-9.83,1.65-13.53,5.49-3.44,3.57-6.41,7.5-8.85,11.82.58-.08.88.38,1.24.69,3.77,3.2,7.62,6.28,11.85,8.88Zm9.49-19.16c5.93,3.02,7.21,11.17,2.48,15.86-2.66,2.64-6.96,3.18-10.15,1.23-3.62-2.22-5.29-5.51-5.18-9.74,0-6.69,6.66-10.49,12.85-7.34Z"/>
        <path class="cls-1" d="m45.2,35.39c3.58,2.6,7.44,3.01,11.61,2.41,3.58-.52,7.14-1.19,10.77-1.09-.41-.38-.92-.32-1.41-.33-1.57-.03-3.12.2-4.67.4-2.82.35-5.6.93-8.46.9-2.15-.02-4.14-.41-6-1.56-4.22-2.6-8.08-5.68-11.85-8.88-.37-.31-.66-.77-1.24-.69h0c3.56,3.19,7.38,6.03,11.25,8.84Z"/>
        <path class="cls-6" d="m9.72,111.69c-.94-2.51-1.28-5.14-1.39-7.77-.21-5.03.12-10.06.22-15.09.11-6.05,1.67-11.8,3.17-17.6.97-3.76,2.36-7.38,3.41-11.12,1.3-4.61,2.36-9.27,2.96-14.02.21-1.67.28-3.37.48-5.04.68-5.57,2.57-10.72,5.24-15.62.16-.29.27-.6.42-.9-1.98,2.48-3.27,5.35-4.16,8.34-2.08,6.96-3.95,13.99-5.99,20.96-1.32,4.54-2.49,9.12-4.22,13.53-1.16,2.95-2.54,5.81-3.64,8.78-1.8,4.86-3.09,9.86-3.57,15.06-.32,3.49-.61,7.02.16,10.42,1.65,7.3,4.25,14.33,6.44,21.48.09.28.09.77.53.73,1.4-.11,1.39.89,1.61,1.83.93,3.96,2.12,7.84,3.68,11.6-.67-2.94-1.08-5.92-1.41-8.9-.62-5.73-1.94-11.3-3.95-16.69Z"/>
        <path class="cls-6" d="m13.63,125.72c-.44-4.28-1.53-8.38-2.99-12.39-1.24-3.39-1.88-6.86-1.99-10.45-.19-6.22.36-12.42.5-18.63,0-.24.09-.48.12-.73.42-3.26,1.28-6.42,2.14-9.58.83-3.04,1.49-6.14,2.61-9.1,1.53-4.04,2.54-8.25,3.46-12.44.85-3.9,1.05-7.94,1.59-11.92.6-4.47,1.84-8.73,4.03-12.71.54-.98,1.09-2.03,1.15-3.22-.15.29-.26.6-.42.9-2.67,4.9-4.56,10.05-5.24,15.62-.21,1.68-.27,3.37-.48,5.04-.6,4.75-1.66,9.42-2.96,14.02-1.05,3.73-2.44,7.35-3.41,11.12-1.5,5.79-3.06,11.54-3.17,17.6-.09,5.03-.43,10.06-.22,15.09.11,2.63.45,5.26,1.39,7.77,2.01,5.4,3.33,10.96,3.95,16.69.33,2.99.74,5.97,1.41,8.9-.04-.78,0-1.55-.13-2.33-.5-3.07-1.01-6.14-1.32-9.23Z"/>
        <path class="cls-2" d="m66.26,13.47c.84,4.75,1.29,9.54,1.86,14.33.35,2.9.52,5.82,1.21,8.67,2.07-.23,4.09-.87,6.2-.75-.03-.62-.03-1.24-.09-1.85-.88-9.2.87-17.77,6-25.58,1.48-2.25,3.41-4.1,5.2-6.13-.66-.4-1.32-.34-1.96-.34-4.54.02-9.05.39-13.55.96-.77.1-1.39.44-1.96.95-2.94,2.66-3.55,6.05-2.9,9.72Z"/>
        <path class="cls-6" d="m201.07,66.75c-.12-2.19-.25-4.41-.93-6.53-.12.65-.41.46-.74.17-4.37-3.8-9.65-6.01-14.79-8.47-2.44-1.17-4.82-2.48-7.38-3.4-.17-.06-.28-.28-.42-.43-2.48,2.39-2.87,4.9-1.16,7.78.48.81,1.01,1.6,1.56,2.36.33.46.77.81,1.32,1.07,8.21,3.92,16.19,8.17,21.6,15.91.17.24.4.64.77.48.36-.16.19-.59.19-.9.01-2.68.12-5.37-.03-8.04Z"/>
        <path class="cls-7" d="m30.49,149.36c3.78-.04,7.49.53,11.17,1.34,3.88.85,7.8,1.54,11.71,2.25,2.69.49,5.37,1.12,8.05,1.72,2.59.58,2.62.63,3.2-1.88.4-1.71,1.27-3.17,2.22-4.59-4.69-.88-9.37-1.77-14.06-2.65-6.79-1.27-13.59-2.51-20.51-2.91-.84-.05-1.37.11-1.52.99-.28,1.66-.56,3.32-.84,4.99.09.32-.04.74.58.73Z"/>
        <path class="cls-7" d="m82.82,153.53c-.67,1.77-1.41,3.51-2.12,5.26.6,1.14,1.83,1.3,2.84,1.74,3.82,1.65,7.94,2.37,11.83,3.78,5.59,2.03,11.28,3.74,17.06,5.17.61-1.13.58-2.37.6-3.6,0-.53-.32-.69-.72-.86-9.44-3.98-18.87-7.96-28.3-11.96-.63-.27-.94-.22-1.19.47Z"/>
        <path class="cls-6" d="m26.43,130.75c-.49-2.6-1.25-5.13-1.97-7.66-1.33-4.71-1.99-9.51-2.31-14.37-.13-1.97-.36-3.95-.73-5.89-.64-3.28-1.12-6.59-1.73-9.87-.28-1.53-.78-2.85-2.35-3.49-.06,5.02.13,10.04.44,15.06.27,4.39,1.03,8.72,1.59,13.07.62,4.8,1.71,9.52,3.11,14.17.47,1.56.91,2.78,2.87,2.59.45-.04.94.26,1.41.41h0c-.24-1.32-.07-2.66-.33-4Z"/>
        <path class="cls-6" d="m26.24,128.39c-.52-2.43-1.36-4.79-1.98-7.21-1.39-5.46-1.47-11.11-2.27-16.65-.64-4.41-1.34-8.82-2.34-13.17-.3-1.31-1.04-1.89-2.32-1.91,1.57.64,2.07,1.96,2.35,3.49.6,3.29,1.09,6.59,1.73,9.87.38,1.94.6,3.92.73,5.89.32,4.87.99,9.66,2.31,14.37.71,2.53,1.47,5.06,1.97,7.66.26,1.34.09,2.68.33,4h0c.83-2.2-.07-4.28-.52-6.36Z"/>
        <path class="cls-2" d="m76.06,164.66c.32.05.49-.28.61-.53.42-.85.81-1.71,1.23-2.56,1.65-3.37,3.2-6.78,3.95-10.48.58-2.86-.31-5.05-2.51-6.27-2.08-1.16-4.13-.69-6.32,1.46-2.76,2.71-3.78,6.21-4.42,9.86-.36,2.04-.39,4.1-.11,6.18,1.79-2.67,3.04-5.56,4.27-8.5.6,4.12-.83,8.08-1.15,12.22.8-.25,1.18-.64,1.54-1.03.63-.69.85-1.59,1.19-2.43,1.03-2.59,2.09-5.16,3.45-8,.31,1.14.31,1.9,0,2.69-.56,1.46-1.08,2.93-1.67,4.38-.3.75-.39,1.51-.34,2.3.02.27-.09.66.28.72Z"/>
        <path class="cls-10" d="m66.85,148.2c.27.34.08.64-.11.9-1.08,1.37-1.54,2.99-1.95,4.64-.42,1.64-.63,1.82-2.35,1.47-2.75-.57-5.51-1.03-8.24-1.72-3.04-.77-6.18-.99-9.24-1.72-4.29-1.03-8.63-1.81-13.05-2.13-.41-.03-.82-.04-1.23-.02-.72.03-.99-.29-.76-.99-.39.71-.15,1.54-.44,2.27-.5,1.25.16,1.54,1.26,1.75,6.71,1.26,13.41,2.57,20.11,3.86,5.05.97,10.1,1.92,15.14,2.91.57.11.92.2.92-.6.02-2.67.83-5.19,1.66-7.69q.79-2.38-1.72-2.93Z"/>
        <path class="cls-10" d="m30.67,149.62c.41-.02.82,0,1.23.02,4.42.31,8.75,1.1,13.05,2.13,3.06.73,6.21.95,9.24,1.72,2.73.69,5.49,1.15,8.24,1.72,1.71.35,1.93.17,2.35-1.47.42-1.65.87-3.27,1.95-4.64.2-.25.38-.56.11-.9-.95,1.43-1.82,2.88-2.22,4.59-.58,2.5-.61,2.46-3.2,1.88-2.68-.61-5.36-1.24-8.05-1.72-3.91-.71-7.82-1.4-11.71-2.25-3.68-.81-7.39-1.37-11.17-1.34-.62,0-.48-.41-.58-.73-.23.7.03,1.03.76.99Z"/>
        <path class="cls-10" d="m111.01,169.46c-4.92-1.23-9.77-2.72-14.55-4.4-2.88-1.01-5.79-1.91-8.73-2.72-2.15-.59-4.24-1.36-6.22-2.4-.44-.23-1.07-.4-.81-1.15-.42.98-.78,1.98-1.27,2.92-.43.83-.25,1.23.62,1.53,2.34.79,4.65,1.63,6.98,2.45,7.21,2.54,14.41,5.11,21.71,7.38.62.19,1.29.69,1.88-.14.76-1.08,1.58-2.11,1.83-3.45-.48.34-.96.1-1.42-.01Z"/>
        <path class="cls-10" d="m83.54,160.53c-1.01-.44-2.24-.59-2.84-1.74-.26.75.37.92.81,1.15,1.98,1.04,4.06,1.81,6.22,2.4,2.94.81,5.85,1.71,8.73,2.72,4.78,1.68,9.63,3.17,14.55,4.4.46.12.94.36,1.42.01-5.78-1.42-11.47-3.14-17.06-5.17-3.9-1.41-8.02-2.13-11.83-3.78Z"/>
        <path class="cls-2" d="m27.67,152.53c.79.04.7-1.03.73-1.59.12-2.76.77-5.39,1.82-7.91.86-2.06.34-3.67-1.16-5.14-.74-.73-1.53-1.36-2.45-1.86-1.35-.74-2.61-.56-3.86.21-1.71,1.05-2.34,2.67-2.47,4.58-.31,4.7.88,9.15,2.28,13.56.03.08.17.13.27.19.5-.51.59-1.14.54-1.75-.14-1.81-.38-3.61-.5-5.41-.08-1.28-.45-2.56.04-3.89,1.03,3.96,1.04,8.14,2.65,11.97.56-3.83.67-7.67.7-11.87.55.9.7,1.56.73,2.25.07,1.69.09,3.38.2,5.07.04.57-.21,1.56.47,1.59Z"/>
        <path class="cls-6" d="m79.45,109.42c-.09,1.44-.35,2.86-.34,4.31.04,5.29-.48,10.48-1.96,15.62-1.23,4.26-2.12,8.64-1.98,13.14,0,.25-.01.49-.15.72.83-.29,1.71-.34,2.56-.23,1.02.13,1.3-.39,1.41-1.23.25-1.95.47-3.9.79-5.84.79-4.78,1.17-9.62,1.38-14.44.17-3.86.27-7.74-.14-11.6-.11-1.01-.2-2.06.16-3.06-1.13.51-1.66,1.44-1.74,2.63Z"/>
        <path class="cls-6" d="m79.27,108.37c-.39,2.14-.53,4.31-.53,6.49,0,3.45-.11,6.89-.94,10.26-1.14,4.61-2.37,9.2-2.9,13.93-.15,1.39-.31,2.78.12,4.15.13-.22.15-.47.15-.72-.14-4.5.76-8.88,1.98-13.14,1.48-5.13,2-10.33,1.96-15.62,0-1.45.25-2.87.34-4.31.08-1.19.61-2.12,1.74-2.63-1.22-.18-1.73.52-1.92,1.58Z"/>
        <path class="cls-4" d="m195.85,57.39c1.17.76,2.37,1.49,3.42,2.42.25.22.5.43.87.41-.09-.4-.17-.79-.28-1.19-.62-2.19-1.44-4.26-3.21-5.85-3.88-3.49-8.29-5.95-13.47-6.73-2.26-.34-4.65-.5-6.36,1.63,2.8.87,5.34,2.34,7.98,3.58,3.76,1.76,7.56,3.46,11.05,5.73Z"/>
        <path class="cls-4" d="m177.23,48.51c2.56.91,4.94,2.23,7.38,3.4,5.13,2.46,10.42,4.68,14.79,8.47.34.29.63.48.74-.17-.36.02-.62-.19-.87-.41-1.06-.93-2.25-1.65-3.42-2.42-3.5-2.27-7.29-3.97-11.05-5.73-2.64-1.24-5.18-2.71-7.98-3.58.14.15.25.37.42.43Z"/>
        <path class="cls-3" d="m84.38,50.56c-2.02-1.75-4.4-3.14-5.98-5.32-1.17-1.61-2.43-2.51-4.44-2.15-.25,0-.5,0-.74,0-1.51-.05-1.53-.04-1.14,1.45,2.09,7.96,9.92,12.36,17.33,12.19.96-.02.64-.49.33-.92-1.48-2.06-3.47-3.62-5.37-5.25Z"/>
        <path class="cls-10" d="m19.15,145.78q-.61-3.18-3.82-3.03c1.41.11,1.39.94,1.12,2.03-.16.66-.19,1.41-.06,2.08.16.84-.1.72-.75.64-3.42-.4-6.85-.76-10.29-1.05-.92-.08-1.02-.45-.82-1.19.24-.91.44-1.84.66-2.75-.67.05-1.58-.45-1.96.24-1.19,2.18-2.1,4.48-1.64,7.07.1.58.41.72.92.75,5.51.35,11.02.68,16.53,1.08,1.01.07,1.1-.37.96-1.15-.29-1.58-.57-3.16-.87-4.74Z"/>
        <path class="cls-6" d="m59.47,214.13c-.79.82-1.8,1.2-2.9,1.22-2.17.04-4.25-.47-6.26-1.27-.36-.15-.61-.42-.79-.76.05,1,.52,1.89.8,2.83.45,1.51,1.3,2.1,2.91,2.12,2.18.02,4.36.01,6.54,0,2.41-.01,3.4-.96,3.9-3.37.21-1.01-.11-2.18.73-3.04-1.26.46-2.71.34-3.79,1.35-.36.33-.81.57-1.15.93Z"/>
        <path class="cls-6" d="m60.58,212.79c-.98.65-1.59,1.8-2.88,2.03-2.93.53-5.58-.32-8.17-1.51.18.34.43.61.79.76,2.01.8,4.09,1.31,6.26,1.27,1.09-.02,2.1-.4,2.9-1.22.34-.35.8-.59,1.15-.93,1.08-1.01,2.53-.89,3.79-1.35-1.38-.13-2.6.12-3.83.93Z"/>
        <path class="cls-7" d="m4.98,144.89c-.19.86.04,1.14.94,1.23,2.94.29,5.88.49,8.8.94.94.14,1.44-.03,1.28-1.1-.04-.24-.04-.5.03-.73.29-.98.29-1.86-.7-2.47-3.38-.08-6.75-.15-10.13-.23.46.84-.05,1.6-.22,2.37Z"/>
        <path class="cls-7" d="m5.36,146.46c3.43.29,6.86.65,10.29,1.05.64.08.91.19.75-.64-.13-.67-.1-1.42.06-2.08.27-1.1.29-1.92-1.12-2.03.99.61.98,1.49.7,2.47-.07.23-.07.49-.03.73.17,1.07-.34,1.25-1.28,1.1-2.92-.45-5.87-.65-8.8-.94-.9-.09-1.13-.37-.94-1.23.17-.77.68-1.53.22-2.37-.22.92-.43,1.84-.66,2.75-.19.74-.1,1.11.82,1.19Z"/>
        <path class="cls-3" d="m69.33,36.47c.25,1.67,1.21,3.02,1.98,4.45.14.26.36.46.67.48,1.31.09,2.61.17,3.92.26.37.02.49-.12.44-.51-.22-1.82-.41-3.64-.82-5.43-1.33.63-2.8.47-4.18.78-.66.15-1.35.45-2.01-.04Z"/>
        <path class="cls-3" d="m69.33,36.47c.66.49,1.36.18,2.01.04,1.39-.31,2.86-.16,4.18-.78-2.11-.12-4.13.52-6.2.75Z"/>
        <path class="cls-16" d="m49.18,121.26c-.63-.07-.5.78-.64,1.25-.18.57-.04,1.48-.52,1.67-.64.25-.75-.8-1.44-1.16-.17,1.02-.05,1.88.48,2.65.59.87,1.27.83,1.77-.1.5-.91.8-1.89.7-2.94-.04-.48.31-1.29-.35-1.36Z"/>
        <path class="cls-14" d="m64.96,109.12c-.61-.28-1.03-.91-1.77-.99.08,1,.7,1.87,1.4,1.98.62.09,1.28-.08,1.4-.71.23-1.3.57-2.61.1-3.98-.71,1.13-.52,2.51-1.13,3.71Z"/>
        <path class="cls-14" d="m34.19,98.31c-.41-.2-.47.45-.74.67-.16.14-.16.47-.53.43-.29-.79-.59-1.59-.88-2.38-.1.02-.21.04-.31.06-.12.95-.23,1.89.37,2.77.28.41.58.82,1.17.74.62-.08.91-.54,1.05-1.07.1-.41.35-.99-.12-1.22Z"/>
        <path class="cls-16" d="m59.13,204.36c-.5-.7-.9-1.26-1.35-1.89-.69,1.17-.03,2.05.4,2.94.21.42.38,1.03,1.02.89.5-.11.82-.54.96-1.04.4-1.42.89-2.83,1.16-4.28.24-1.27.62-2.58-.03-3.92-.74,2.39-1.26,4.84-2.16,7.31Z"/>
        <path class="cls-13" d="m47.76,189.64c-.58-.1-.37.69-.58,1.05-.06.1-.17.16-.27.25-.63-.45-.66-1.34-1.35-1.77-.43.72-.25,1.43-.05,2.14.23.78.53,1.56,1.53,1.45,1.01-.11,1.09-1,1.19-1.76.07-.51.09-1.26-.48-1.35Z"/>
        <path class="cls-13" d="m58.72,176.08c.38-1.16.38-2.31-.07-3.54-.7,1.07-.34,2.42-1.26,3.39-.34-.59-.62-1.08-.97-1.69-.43.48-.49.92-.43,1.38.1.73.34,1.37,1.18,1.52.87.16,1.31-.34,1.55-1.07Z"/>
        <path class="cls-13" d="m69.51,185.57c-.3.55-.37,1.2-.47,1.85-.12.79-.35,1.55-1.37.71-.11-.09-.3-.1-.47-.15-.29.93.03,1.55.87,1.93.55.25,1.04.07,1.27-.41.61-1.24.71-2.58.5-3.94-.02-.12-.18-.11-.33,0Z"/>
        <path class="cls-16" d="m48.87,34.04c3.19,1.96,7.49,1.41,10.15-1.23,4.73-4.69,3.45-12.84-2.48-15.86-6.18-3.15-12.84.66-12.85,7.34-.11,4.22,1.55,7.52,5.18,9.74Zm-3.39-12.25c.71-2.9,3.17-4.43,6.74-4.43,3.68,0,6.86,2.42,7.94,6.07.95,3.2-.61,7.45-3.4,9.27-2.58,1.67-6.77,1.02-9.04-1.47-2.47-2.71-3.09-5.95-2.25-9.43Z"/>
        <path class="cls-12" d="m56.77,32.68c2.79-1.81,4.35-6.07,3.4-9.27-1.09-3.65-4.26-6.07-7.94-6.07-3.57,0-6.04,1.54-6.74,4.43-.85,3.48-.22,6.72,2.25,9.43,2.27,2.49,6.47,3.14,9.04,1.47Zm-4.45-11.37c1.96.02,3.6,1.89,3.6,4.11,0,2.04-1.49,3.52-3.52,3.49-2.02-.04-3.43-1.65-3.41-3.91.02-2.12,1.45-3.71,3.33-3.69Z"/>
        <path class="cls-16" d="m52.4,28.91c2.02.04,3.52-1.45,3.52-3.49,0-2.22-1.64-4.09-3.6-4.11-1.87-.02-3.31,1.57-3.33,3.69-.02,2.25,1.4,3.87,3.41,3.91Zm.06-6.1c1.22-.01,2.02.94,2.01,2.42,0,1.32-.76,2.1-2.01,2.09-1.2-.01-1.95-.85-1.95-2.17,0-1.42.75-2.32,1.95-2.34Z"/>
        <path class="cls-5" d="m52.46,27.31c1.25.01,2-.77,2.01-2.09,0-1.48-.79-2.43-2.01-2.42-1.19.01-1.94.92-1.95,2.34,0,1.32.75,2.16,1.95,2.17Z"/>
      </g>
    </g>
  </g>
</svg>